# xmcd CD database file
#
# Track frame offsets:
#	150
#	1975
#	24270
#	46562
#	72445
#	96937
#	117410
#	147517
#	171642
#	173175
#	198252
#	222612
#
# Disc length: 3250 seconds
#
# Revision: 2
# Processed by: cddbd v1.5.2PL0 Copyright (c) Steve Scherf et al.
# Submitted via: CDex 1.70beta2
#
DISCID=ad0cb00c
DTITLE=Mr.Children - Atomic Heart
DYEAR=1994
DGENRE=Rock
TTITLE0=Printing
TTITLE1=Dance Dance Dance
TTITLE2=ラヴ コネクション
TTITLE3=Innocent World
TTITLE4=クラスメイト
TTITLE5=Cross Road
TTITLE6=ジェラシー
TTITLE7=Asia（エイジア）
TTITLE8=Rain
TTITLE9=雨のち晴れ
TTITLE10=Round About 〜孤独の肖像〜
TTITLE11=Over
EXTD=YEAR: 1994
EXTT0=
EXTT1=
EXTT2=
EXTT3=
EXTT4=
EXTT5=
EXTT6=
EXTT7=
EXTT8=
EXTT9=
EXTT10=
EXTT11=
PLAYORDER=
